<svg width="558" height="376" viewBox="0 0 558 376" fill="none" xmlns="http://www.w3.org/2000/svg">
<rect width="558" height="376" fill="#E5E5E5"/>
<path d="M556.472 271.612C556.472 293.905 433.668 376 280.3 376C126.931 376 6.2045 288.514 6.2045 266.221C6.2045 243.927 126.931 295.257 280.3 295.257C433.668 295.257 556.472 249.298 556.472 271.612Z" fill="#3F3D56"/>
<path d="M121.335 37.9648C122.376 37.9648 123.221 37.1212 123.221 36.0806C123.221 35.04 122.376 34.1964 121.335 34.1964C120.294 34.1964 119.45 35.04 119.45 36.0806C119.45 37.1212 120.294 37.9648 121.335 37.9648Z" fill="#E7EFFD"/>
<path d="M60.9492 34.1914C61.9905 34.1914 62.8347 33.3478 62.8347 32.3072C62.8347 31.2666 61.9905 30.4231 60.9492 30.4231C59.9078 30.4231 59.0637 31.2666 59.0637 32.3072C59.0637 33.3478 59.9078 34.1914 60.9492 34.1914Z" fill="#E7EFFD"/>
<path d="M142.634 36.8895C143.081 36.8895 143.443 36.5274 143.443 36.0806C143.443 35.6338 143.081 35.2717 142.634 35.2717C142.187 35.2717 141.824 35.6338 141.824 36.0806C141.824 36.5274 142.187 36.8895 142.634 36.8895Z" fill="#E7EFFD"/>
<path d="M81.9761 35.0054C82.4232 35.0054 82.7857 34.6432 82.7857 34.1964C82.7857 33.7497 82.4232 33.3875 81.9761 33.3875C81.5291 33.3875 81.1666 33.7497 81.1666 34.1964C81.1666 34.6432 81.5291 35.0054 81.9761 35.0054Z" fill="#E7EFFD"/>
<path d="M81.1717 91.5054C81.6188 91.5054 81.9812 91.1432 81.9812 90.6964C81.9812 90.2497 81.6188 89.8875 81.1717 89.8875C80.7246 89.8875 80.3622 90.2497 80.3622 90.6964C80.3622 91.1432 80.7246 91.5054 81.1717 91.5054Z" fill="#E7EFFD"/>
<path d="M454.534 48.8075C454.981 48.8075 455.344 48.4454 455.344 47.9986C455.344 47.5518 454.981 47.1897 454.534 47.1897C454.087 47.1897 453.725 47.5518 453.725 47.9986C453.725 48.4454 454.087 48.8075 454.534 48.8075Z" fill="#E7EFFD"/>
<path d="M180.374 49.5512C180.821 49.5512 181.183 49.189 181.183 48.7422C181.183 48.2955 180.821 47.9333 180.374 47.9333C179.927 47.9333 179.564 48.2955 179.564 48.7422C179.564 49.189 179.927 49.5512 180.374 49.5512Z" fill="#E7EFFD"/>
<path d="M414.637 47.9333C415.084 47.9333 415.447 47.5711 415.447 47.1244C415.447 46.6776 415.084 46.3154 414.637 46.3154C414.19 46.3154 413.828 46.6776 413.828 47.1244C413.828 47.5711 414.19 47.9333 414.637 47.9333Z" fill="#E7EFFD"/>
<path d="M516.539 50.3601C516.986 50.3601 517.349 49.9979 517.349 49.5512C517.349 49.1044 516.986 48.7422 516.539 48.7422C516.092 48.7422 515.73 49.1044 515.73 49.5512C515.73 49.9979 516.092 50.3601 516.539 50.3601Z" fill="#E7EFFD"/>
<path opacity="0.4" d="M346.166 287.916H331.786V297.613H346.166V287.916Z" fill="black"/>
<path opacity="0.4" d="M384.987 287.916H370.607V297.613H384.987V287.916Z" fill="black"/>
<path opacity="0.4" d="M426.679 287.916H412.299V297.613H426.679V287.916Z" fill="black"/>
<path opacity="0.4" d="M138.772 288.499H124.392V298.196H138.772V288.499Z" fill="black"/>
<path opacity="0.4" d="M277.514 224.317H205.624V232.984H277.514V224.317Z" fill="black"/>
<path opacity="0.4" d="M277.514 251.971H205.624V260.639H277.514V251.971Z" fill="black"/>
<path d="M169.609 115.467H168.372V114.231H168.151V115.467H166.914V115.688H168.151V116.924H168.372V115.688H169.609V115.467Z" fill="#E7EFFD"/>
<path d="M426.679 89.7769H425.442V88.5409H425.216V89.7769H423.984V89.998H425.216V91.234H425.442V89.998H426.679V89.7769Z" fill="#E7EFFD"/>
<path d="M198.907 84.7776H197.67V83.5416H197.444V84.7776H196.212V85.0037H197.444V86.2347H197.67V85.0037H198.907V84.7776Z" fill="#E7EFFD"/>
<path d="M197.021 164.586C197.468 164.586 197.831 164.224 197.831 163.777C197.831 163.33 197.468 162.968 197.021 162.968C196.574 162.968 196.212 163.33 196.212 163.777C196.212 164.224 196.574 164.586 197.021 164.586Z" fill="#E7EFFD"/>
<path d="M381.634 92.3143C382.081 92.3143 382.443 91.9521 382.443 91.5053C382.443 91.0586 382.081 90.6964 381.634 90.6964C381.187 90.6964 380.824 91.0586 380.824 91.5053C380.824 91.9521 381.187 92.3143 381.634 92.3143Z" fill="#E7EFFD"/>
<path d="M462.981 130.626C463.428 130.626 463.791 130.264 463.791 129.817C463.791 129.37 463.428 129.008 462.981 129.008C462.534 129.008 462.172 129.37 462.172 129.817C462.172 130.264 462.534 130.626 462.981 130.626Z" fill="#E7EFFD"/>
<path d="M335.582 137.565C336.029 137.565 336.392 137.202 336.392 136.756C336.392 136.309 336.029 135.947 335.582 135.947C335.135 135.947 334.773 136.309 334.773 136.756C334.773 137.202 335.135 137.565 335.582 137.565Z" fill="#E7EFFD"/>
<path d="M359.661 272.913C359.661 272.913 342.41 277.084 335.582 284.887C333.295 287.494 329.901 289.373 326.396 290.715V278.943C330.343 272.32 334.32 264.955 334.32 264.955C334.501 264.593 335.939 259.513 335.939 259.513C339.177 256.971 335.758 248.087 335.758 248.087C335.758 248.087 337.739 242.465 336.658 241.375C335.577 240.284 336.477 237.385 337.377 236.114C338.277 234.843 338.096 233.21 338.096 232.125C338.096 231.039 336.658 229.401 334.32 228.497C331.982 227.593 334.501 226.141 335.939 225.774C337.377 225.407 337.739 221.965 336.12 220.151C334.501 218.338 336.301 217.252 337.196 215.258C338.091 213.263 334.305 213.625 334.305 213.625V195.285C334.305 195.285 333.224 189.301 332.148 178.78C331.072 168.259 326.934 167.174 326.934 167.174C324.718 166.486 322.555 165.636 320.463 164.631C318.261 163.6 315.977 162.751 313.635 162.094C313.635 162.094 308.783 162.094 304.826 160.878C300.869 159.662 298.818 159.577 298.818 159.577L298.169 159.255C293.303 156.783 289.448 152.698 287.263 147.699C287.153 147.448 287.052 147.196 286.952 146.955C288.026 145.779 288.988 144.503 289.823 143.147V143.117C289.823 143.302 289.823 143.488 289.823 143.674C289.823 143.75 289.823 143.83 289.823 143.905C289.823 144.353 289.823 144.8 289.823 145.247V145.292C292.689 140.233 301.005 139.077 301.794 133.299C301.83 133.036 301.849 132.77 301.85 132.505V132.47C301.85 132.279 301.85 132.083 301.85 131.887C301.744 130.274 301.191 128.666 301.085 127.038C301.05 126.572 301.05 126.103 301.085 125.636V125.667C301.457 121.18 304.841 117.276 306.39 112.92C306.806 111.748 307.078 110.53 307.199 109.292V109.257C307.24 108.885 307.265 108.508 307.275 108.131C307.275 108.041 307.275 107.945 307.275 107.855C307.275 107.594 307.275 107.352 307.275 107.071C307.228 104.753 306.706 102.47 305.742 100.361C304.778 98.2528 303.391 96.364 301.669 94.8114C298.803 92.3243 295.017 90.7617 293.031 87.5109C292.105 86.0036 291.653 84.2149 290.642 82.7578C288.742 80.0044 285.252 78.8839 281.949 78.487C278.646 78.0901 275.252 78.2207 272.094 77.1857C269.852 76.4521 267.82 75.1508 265.558 74.4976C263.093 73.8383 260.485 73.9486 258.084 74.8135C255.683 75.6784 253.605 77.2566 252.128 79.3361C250.936 81.0746 250.157 83.1547 248.548 84.5113C245.255 87.2949 239.669 86.089 236.783 89.2946C235.199 91.0582 235.018 93.4599 235.209 95.9118C235.209 95.9419 235.209 95.9721 235.209 96.0022C235.209 96.1881 235.244 96.3791 235.264 96.57C235.264 96.6604 235.264 96.7509 235.264 96.8363C235.264 96.9217 235.264 97.0272 235.299 97.1227C235.4 98.002 235.526 98.8762 235.636 99.7203C235.636 99.851 235.666 99.9766 235.681 100.107L235.772 100.896C235.772 101.087 235.802 101.278 235.822 101.469C235.842 101.66 235.857 101.971 235.873 102.182C235.888 102.393 235.873 102.554 235.908 102.745C236.23 109.441 234.81 116.106 231.785 122.089C229.065 127.42 225.022 132.334 224.318 138.288C224.209 139.264 224.182 140.247 224.238 141.227C224.238 141.343 224.238 141.458 224.238 141.574C224.238 141.69 224.268 141.926 224.283 142.102C224.298 142.277 224.323 142.509 224.348 142.71C224.348 142.825 224.379 142.941 224.394 143.056C224.429 143.323 224.469 143.589 224.514 143.86L224.544 144.031C225.258 148.091 226.877 152.07 227.737 156.17C228.06 157.682 228.275 159.215 228.381 160.757C228.378 160.767 228.378 160.778 228.381 160.788C228.411 161.29 228.436 161.767 228.451 162.26C228.451 162.923 228.451 163.591 228.451 164.269C227.086 164.794 225.687 165.223 224.263 165.556C221.749 165.918 214.373 172.449 214.911 174.097C215.449 175.745 211.613 187.161 211.507 187.508L205.473 229.211C205.473 229.211 202.271 232.296 203.271 234.29C204.272 236.285 203.075 239.732 203.075 239.732C203.075 239.732 197.665 242.088 198.867 243.54C200.068 244.992 199.52 247.711 198.696 249.524C197.871 251.338 196.519 254.604 198.696 255.147C200.873 255.689 199.068 262.769 199.068 262.769C199.068 262.769 206.655 261.895 206.107 266.397C205.926 267.829 211.411 271.768 213.699 273.345V295.021C210.627 294.162 207.017 293.046 204.714 291.971C200.043 289.795 173.802 285.625 168.05 298.141C162.298 310.657 175.959 327.343 179.373 329.157C179.373 329.157 182.611 331.694 183.33 332.966C184.049 334.237 188.182 334.599 188.182 334.599C188.182 334.599 192.496 336.608 193.572 337.679C194.367 338.482 200.938 340.568 208.726 342.201C208.726 342.201 202.436 356.671 212.699 355.48C222.961 354.289 227.958 349.24 235.194 349.24C238.085 349.24 243.455 348.833 248.86 348.35C250.218 348.59 251.56 348.907 252.882 349.3C255.927 350.257 259.055 350.93 262.224 351.31C262.224 351.31 270.314 355.661 274.628 354.571C274.984 354.471 275.316 354.3 275.604 354.068H275.704C276.489 353.872 277.378 353.063 278.304 351.842C283.699 352.395 289.868 353.179 292.161 354.073C296.631 355.797 328.604 353.41 328.604 353.41C328.604 353.41 349.258 353.817 355.176 355.606C361.094 357.394 358.993 337.342 348.072 335.086C345.157 334.502 342.191 334.209 339.218 334.212C339.974 333.432 340.665 332.592 341.284 331.699C345.216 331.343 347.82 331.122 347.82 331.122C347.82 331.122 358.243 326.042 364.176 322.957C367.965 320.898 371.367 318.198 374.232 314.978C374.232 314.978 379.441 311.712 381.598 310.456C383.755 309.2 384.831 305.015 384.831 305.015C401.177 268.009 359.661 272.913 359.661 272.913ZM312.861 226.497C312.861 225.889 312.861 225.276 312.861 224.668C313.444 225.08 313.359 225.729 312.861 226.492V226.497ZM313.032 239.325C313.469 239.898 313.892 240.42 314.193 240.832C315.355 242.339 313.253 243.043 313.404 245.54C313.439 246.098 313.489 246.877 313.54 247.741C313.318 244.138 313.137 241.174 313.032 239.32V239.325Z" fill="url(#paint0_linear)"/>
<path d="M219.481 296.563C219.481 296.563 209.425 294.227 204.744 292.072C200.063 289.916 173.832 285.786 168.08 298.181C162.328 310.577 175.989 327.092 179.403 328.891C182.817 330.689 216.067 306.075 216.067 306.075L242.293 317.128L247.321 299.975L219.481 296.563Z" fill="#65617D"/>
<path d="M326.23 299.975H249.096C238.869 299.975 230.578 308.26 230.578 318.48V321.158C230.578 331.378 238.869 339.663 249.096 339.663H326.23C336.458 339.663 344.748 331.378 344.748 321.158V318.48C344.748 308.26 336.458 299.975 326.23 299.975Z" fill="#65617D"/>
<path opacity="0.1" d="M344.748 319.816C344.752 323.72 343.601 327.538 341.44 330.79C340.705 331.892 339.863 332.918 338.926 333.855C337.084 335.701 334.895 337.164 332.485 338.162C330.075 339.16 327.491 339.672 324.883 339.668H250.439C245.171 339.668 240.12 337.577 236.395 333.855C232.671 330.133 230.578 325.085 230.578 319.822C230.578 314.558 232.671 309.51 236.395 305.788C240.12 302.066 245.171 299.975 250.439 299.975H324.888C330.154 299.975 335.205 302.065 338.93 305.786C342.654 309.507 344.747 314.554 344.748 319.816V319.816Z" fill="black"/>
<path d="M282.587 320.977C282.587 320.977 271.139 323.916 261.797 323.786C252.455 323.655 208.757 341.798 208.757 341.798C208.757 341.798 202.467 356.128 212.729 354.942C222.991 353.757 227.989 348.782 235.224 348.782C242.459 348.782 265.221 346.27 265.221 346.27L287.123 330.102L282.587 320.977Z" fill="#FBBEBE"/>
<path d="M289.752 185.754L269.218 189.799L267.886 190.065C267.886 190.065 251.65 185.754 251.112 185.392C250.574 185.031 235.837 165.189 235.837 165.189C235.837 165.189 243.289 165.269 249.141 161.898C249.353 161.777 249.559 161.647 249.765 161.521C252.338 159.97 254.293 157.574 255.296 154.743C255.401 154.447 255.492 154.14 255.577 153.819C256.201 151.417 256.241 148.508 255.406 144.986C253.395 136.61 258.021 134.304 264.15 134.505C273.004 134.796 285.056 140.318 285.056 140.318C285.212 143.136 285.854 145.907 286.952 148.508C287.047 148.749 287.153 149.01 287.263 149.241C289.462 154.2 293.317 158.241 298.169 160.672L298.818 160.994C299.471 161.305 300.16 161.602 300.874 161.868C316.531 167.797 289.752 185.754 289.752 185.754Z" fill="#FBBEBE"/>
<path opacity="0.1" d="M287.284 149.241C283.379 153.659 278.081 156.613 272.268 157.613C266.455 158.613 260.475 157.601 255.316 154.743C256.201 152.171 256.367 148.97 255.426 144.986C250.574 124.511 285.091 140.318 285.091 140.318C285.262 143.403 286.005 146.429 287.284 149.241V149.241Z" fill="black"/>
<path d="M293.765 131.053C293.773 135.891 292.414 140.634 289.843 144.734C289.006 146.079 288.045 147.342 286.972 148.508C282.443 153.468 276.152 156.462 269.444 156.848C268.942 156.884 268.404 156.899 267.881 156.899C262.762 156.899 257.759 155.382 253.503 152.54C249.247 149.699 245.93 145.66 243.972 140.934C242.013 136.209 241.5 131.009 242.499 125.993C243.497 120.976 245.962 116.368 249.581 112.751C253.201 109.135 257.812 106.672 262.832 105.674C267.852 104.676 273.055 105.188 277.784 107.145C282.513 109.103 286.555 112.417 289.398 116.67C292.242 120.923 293.76 125.923 293.76 131.038L293.765 131.053Z" fill="#FBBEBE"/>
<path opacity="0.1" d="M289.752 185.754L269.218 189.799L267.886 190.065C267.886 190.065 251.65 185.754 251.112 185.392C250.574 185.031 235.837 165.189 235.837 165.189C235.837 165.189 243.289 165.269 249.141 161.898C249.353 161.777 249.559 161.647 249.765 161.521C251.625 163.531 257.714 169.214 267.282 169.173C268.511 169.174 269.737 169.085 270.953 168.907C273.839 168.465 276.75 168.179 279.656 167.902C285.222 167.319 293.734 165.631 298.204 160.717L298.853 161.039C299.507 161.35 300.195 161.647 300.909 161.913C316.531 167.797 289.752 185.754 289.752 185.754Z" fill="black"/>
<path d="M312.936 238.194C313.112 242.149 315.993 286.685 315.993 286.685H226.309L226.918 258.644L227.42 236.215L227.581 228.854L228.3 203.355L225.701 201.064L211.572 188.623C211.678 188.291 215.509 176.941 214.976 175.343C214.443 173.746 221.809 167.264 224.328 166.902C225.76 166.57 227.168 166.142 228.542 165.621C232.78 164.114 238.437 161.943 239.06 162.285C239.94 162.757 248.759 161.938 249.116 161.903C249.116 161.903 255.622 170.309 267.247 170.259C268.471 170.252 269.693 170.155 270.902 169.967C273.789 169.525 276.7 169.239 279.606 168.937C285.453 168.329 294.544 166.495 298.803 160.999C298.803 160.999 300.859 161.084 304.811 162.285C308.763 163.486 313.62 163.491 313.62 163.491C315.961 164.141 318.244 164.982 320.448 166.003C322.541 166.996 324.704 167.836 326.919 168.515C326.919 168.515 331.052 169.59 332.133 180.006C333.214 190.422 334.305 196.351 334.305 196.351L312.936 214.846C312.936 214.846 312.76 234.225 312.936 238.194Z" fill="#4B679F"/>
<path d="M211.577 269.265L214.72 274.295L226.49 278.44L234.58 263.698L227.124 258.669L215.172 254.001L208.344 257.95L211.577 269.265Z" fill="#FBBEBE"/>
<path d="M312.036 294.046C312.036 294.046 328.749 292.79 335.582 285.067C342.415 277.345 359.661 273.215 359.661 273.215C359.661 273.215 401.177 268.366 384.801 305.004C384.801 305.004 383.725 309.135 381.568 310.391C379.411 311.647 374.202 314.883 374.202 314.883L310.432 309.315L312.036 294.046Z" fill="#65617D"/>
<path opacity="0.1" d="M344.748 319.817C344.752 323.72 343.601 327.538 341.44 330.79C330.71 331.74 306.948 333.97 301.975 335.357C295.866 337.05 283.503 334.101 282.15 333.769L282.024 333.739C282.024 333.739 279.641 326.514 278.505 321.892C278.002 319.791 277.735 318.229 278.067 318.113C279.148 317.757 289.033 315.058 288.852 316.606C288.671 318.153 318.517 305.02 318.517 305.02L319.432 316.515C322.464 319.982 344.748 314.827 344.748 319.817Z" fill="black"/>
<path d="M375.479 310.21L374.222 314.883C371.351 318.075 367.949 320.747 364.166 322.781C358.233 325.836 347.81 330.865 347.81 330.865C347.81 330.865 309.532 334.096 303.061 335.89C296.59 337.683 283.11 334.272 283.11 334.272C283.11 334.272 278.082 319.008 279.158 318.646C280.234 318.284 290.119 315.596 289.943 317.139C289.767 318.681 319.608 305.552 319.608 305.552L375.479 310.21Z" fill="#65617D"/>
<path d="M268.901 350.476C268.901 350.476 287.716 351.787 292.191 353.49C296.666 355.194 328.634 352.837 328.634 352.837C328.634 352.837 349.289 353.239 355.207 355.008C361.124 356.776 359.023 336.92 348.102 334.694C337.181 332.468 321.791 335.744 321.791 335.744C321.791 335.744 304.424 333.508 302.317 333.232C300.211 332.955 286.338 333.357 286.338 333.357L268.901 350.476Z" fill="#FBBEBE"/>
<path opacity="0.1" d="M194.965 300.91C194.965 300.91 219.833 303.145 226.671 307.22L194.965 300.91Z" fill="black"/>
<path opacity="0.1" d="M350.078 284.61C350.078 284.61 330.605 289.343 322.972 296.307L350.078 284.61Z" fill="black"/>
<path opacity="0.1" d="M196.413 295.257C196.81 295.388 207.862 296.835 207.595 297.885C207.329 298.935 196.413 295.257 196.413 295.257Z" fill="black"/>
<path opacity="0.1" d="M179.046 322.962L180.484 328.353C180.484 328.353 183.717 330.865 184.436 332.121C185.155 333.378 189.288 333.739 189.288 333.739C189.288 333.739 193.602 335.714 194.683 336.789C195.764 337.864 207.439 341.281 218.405 342.718C229.371 344.155 249.674 346.848 253.988 348.285C257.036 349.23 260.165 349.891 263.335 350.26C263.335 350.26 271.42 354.571 275.734 353.495C280.048 352.42 287.414 332.84 287.414 332.84C287.414 332.84 259.021 326.198 258.121 324.042C257.221 321.887 229.904 311.833 229.904 311.833L213.729 312.215L179.046 322.962Z" fill="black"/>
<path d="M177.965 323.499L179.403 328.891C179.403 328.891 182.641 331.403 183.36 332.659C184.079 333.915 188.212 334.277 188.212 334.277C188.212 334.277 192.526 336.252 193.602 337.332C194.678 338.412 206.363 341.819 217.324 343.256C228.285 344.693 248.598 347.386 252.912 348.823C255.959 349.764 259.086 350.424 262.254 350.792C262.254 350.792 270.344 355.098 274.658 354.023C278.972 352.948 286.338 333.367 286.338 333.367C286.338 333.367 257.94 326.725 257.045 324.57C256.15 322.414 216.067 306.075 216.067 306.075L203.497 303.201L177.965 323.499Z" fill="#65617D"/>
<path d="M214.715 186.829L211.572 188.628L205.539 229.934C205.539 229.934 202.336 232.989 203.336 234.959C204.337 236.928 203.14 240.345 203.14 240.345C203.14 240.345 197.73 242.681 198.932 244.118C200.134 245.555 199.586 248.248 198.761 250.042C197.936 251.836 196.584 255.066 198.761 255.609C200.938 256.152 199.133 263.146 199.133 263.146C199.133 263.146 206.72 262.282 206.172 266.733C205.946 268.532 214.75 274.27 214.75 274.27C214.75 274.27 204.744 256.132 227.159 258.644L229.085 248.419C229.085 248.419 231.01 242.661 229.085 240.882C227.159 239.104 229.517 230.557 229.517 230.557L229.939 193.472L214.715 186.829Z" fill="#4B679F"/>
<path opacity="0.1" d="M209.833 240.174C210.23 240.832 222.332 242.184 223.122 244.329C223.911 246.475 209.833 240.174 209.833 240.174Z" fill="black"/>
<path opacity="0.1" d="M206.016 250.429C206.016 250.429 207.661 245.299 211.547 246.218C215.434 247.138 206.016 250.429 206.016 250.429Z" fill="black"/>
<path opacity="0.1" d="M203.915 257.92C203.915 257.92 206.806 251.082 210.753 251.61C214.7 252.137 203.915 257.92 203.915 257.92Z" fill="black"/>
<path d="M335.582 257.77L334.32 265.306C334.32 265.306 321.383 289.017 319.045 289.373C316.707 289.73 303.961 273.571 303.961 273.571L300.547 257.765L313.987 255.217L319.955 249.323C319.955 249.323 335.039 250.765 335.582 257.77Z" fill="#FBBEBE"/>
<path d="M329.468 192.939L334.32 196.351V214.489C334.32 214.489 338.096 214.127 337.196 216.107C336.296 218.086 334.501 219.157 336.12 220.955C337.739 222.754 337.377 226.161 335.939 226.522C334.501 226.884 331.987 228.316 334.32 229.216C336.653 230.115 338.096 231.728 338.096 232.808C338.096 233.888 338.277 235.501 337.377 236.757C336.477 238.013 335.582 240.887 336.658 241.968C337.734 243.048 335.758 248.61 335.758 248.61C335.758 248.61 339.177 257.413 335.939 259.925C335.939 259.925 334.501 264.949 334.32 265.311C334.32 265.311 336.588 247.831 313.977 255.222C313.977 255.222 313.56 248.56 313.404 246.093C313.248 243.626 315.355 242.902 314.193 241.43C313.032 239.958 310.126 236.576 311.498 235.682C312.871 234.788 312.398 233.17 311.855 231.909C311.312 230.648 309.417 230.653 311.136 229.125C312.856 227.598 313.877 226.166 312.866 225.447C311.855 224.729 310.101 222.387 311.498 221.312C312.896 220.237 312.936 204.611 312.936 204.611C312.936 204.611 318.688 181.624 329.468 192.939Z" fill="#4B679F"/>
<path opacity="0.1" d="M327.186 223.839C327.186 223.839 334.094 221.965 334.32 223.839C334.547 225.714 327.186 223.839 327.186 223.839Z" fill="black"/>
<path opacity="0.1" d="M319.422 229C319.422 229 328.895 226.633 330.077 228.472C331.258 230.311 319.422 229 319.422 229Z" fill="black"/>
<path opacity="0.1" d="M317.316 233.994C317.316 233.994 331.525 232.019 332.445 234.913C333.365 237.807 317.316 233.994 317.316 233.994Z" fill="black"/>
<path opacity="0.1" d="M319.422 240.174C319.95 240.305 333.104 241.224 333.365 243.721C333.626 246.218 319.422 240.174 319.422 240.174Z" fill="black"/>
<path d="M321.137 248.268H218.999C216.091 248.268 213.734 250.624 213.734 253.529V306.954C213.734 309.859 216.091 312.215 218.999 312.215H321.137C324.044 312.215 326.401 309.859 326.401 306.954V253.529C326.401 250.624 324.044 248.268 321.137 248.268Z" fill="#3F3D56"/>
<path d="M270.068 284.394C272.361 284.394 274.221 282.536 274.221 280.244C274.221 277.952 272.361 276.094 270.068 276.094C267.774 276.094 265.915 277.952 265.915 280.244C265.915 282.536 267.774 284.394 270.068 284.394Z" fill="#E7EFFD"/>
<path opacity="0.1" d="M232.599 209.073C232.599 209.073 243.399 217.323 251.751 211.037C251.751 211.037 237.632 212.318 232.599 209.073Z" fill="black"/>
<path opacity="0.1" d="M287.284 211.293C287.284 211.293 298.079 219.538 306.43 213.253C306.43 213.253 292.317 214.539 287.284 211.293Z" fill="black"/>
<path opacity="0.1" d="M293.765 131.053C293.773 135.891 292.414 140.634 289.843 144.734C289.627 137.534 287.932 130.329 284.01 124.315C280.42 118.788 269.505 109.146 262.003 111.834C261.218 112.122 260.512 112.59 259.943 113.201C259.373 113.812 258.956 114.549 258.725 115.351C257.981 118.175 260.158 119.371 261.555 121.597C263.926 125.454 264.852 130.025 264.17 134.5C264.075 135.102 263.949 135.699 263.793 136.288C262.611 140.72 259.906 145.79 262.697 149.422C264.643 151.934 268.826 152.829 269.394 155.954C269.446 156.249 269.463 156.549 269.444 156.848C269.314 158.964 267.509 160.828 266.719 162.903C265.794 165.35 266.317 167.782 267.277 170.239C268.524 173.444 270.515 176.685 270.998 180.071C271.481 183.458 270.44 186.603 269.213 189.784C268.052 192.798 266.699 195.788 266.247 198.928C265.377 204.897 267.569 211.801 263.808 216.514C263.426 217.084 262.836 217.482 262.164 217.624C259.755 217.875 260.153 213.549 258.227 212.097C258.433 214.609 258.629 217.232 257.724 219.584C256.819 221.935 254.436 223.935 251.942 223.538L251.082 217.895C249.385 219.565 247.343 220.843 245.099 221.639C245.982 215.638 248.109 209.888 251.344 204.757C245.013 207.801 241.323 214.393 238.03 220.594C235.978 224.467 233.851 228.698 234.57 233.024C234.862 234.788 235.621 236.466 235.787 238.239C235.953 240.013 235.309 242.088 233.655 242.761C232.212 243.349 230.528 242.646 229.487 241.47L229.306 241.254C229.205 241.124 229.11 240.988 229.019 240.852C228.84 240.579 228.68 240.294 228.542 239.998C228.092 238.936 227.755 237.829 227.536 236.697L227.426 236.195C225.751 228.854 224.243 221.282 225.47 213.856C225.922 211.123 226.747 208.409 226.646 205.636C226.571 204.072 226.252 202.529 225.701 201.064C224.233 196.954 221.407 193.18 219.798 189.04C219.781 189.012 219.767 188.981 219.758 188.95C218.913 186.759 218.496 184.021 220.06 182.262C220.864 181.353 222.071 180.895 223.076 180.252C226.204 178.217 227.601 174.354 228.18 170.666C228.44 169.003 228.571 167.324 228.572 165.641C232.81 164.134 238.467 161.963 239.09 162.305C239.97 162.777 248.789 161.958 249.146 161.923C251.831 160.376 254.174 158.099 255.321 154.768C255.426 154.472 255.517 154.165 255.602 153.844C251.577 151.673 248.199 148.476 245.813 144.576C243.426 140.676 242.117 136.215 242.018 131.645C241.919 127.075 243.033 122.561 245.248 118.561C247.463 114.562 250.699 111.221 254.627 108.878C258.554 106.536 263.033 105.275 267.607 105.225C272.181 105.175 276.686 106.337 280.664 108.593C284.642 110.849 287.951 114.119 290.253 118.068C292.555 122.018 293.769 126.507 293.77 131.078L293.765 131.053Z" fill="black"/>
<path d="M263.793 135.213C262.606 139.645 259.906 144.714 262.702 148.352C264.648 150.864 268.831 151.754 269.389 154.884C269.837 157.396 267.619 159.466 266.724 161.828C264.592 167.47 270.153 173.017 270.998 178.991C271.918 185.473 267.192 191.376 266.252 197.853C265.382 203.822 267.574 210.721 263.813 215.439C263.433 216.011 262.842 216.41 262.169 216.549C259.76 216.805 260.158 212.479 258.232 211.022C258.438 213.534 258.634 216.157 257.729 218.508C256.824 220.86 254.441 222.855 251.947 222.463L251.087 216.815C249.391 218.485 247.348 219.763 245.104 220.558C245.987 214.561 248.112 208.812 251.344 203.681C245.013 206.726 241.328 213.318 238.035 219.513C235.978 223.387 233.856 227.623 234.57 231.949C234.862 233.712 235.621 235.386 235.787 237.164C235.953 238.943 235.309 241.008 233.655 241.686C232.147 242.314 230.322 241.48 229.306 240.179C228.29 238.878 227.898 237.22 227.531 235.617C225.812 228.12 224.208 220.383 225.46 212.796C225.912 210.057 226.737 207.344 226.636 204.576C226.42 198.511 221.94 193.522 219.758 187.879C218.908 185.684 218.496 182.95 220.06 181.192C220.864 180.282 222.071 179.825 223.076 179.182C226.199 177.142 227.601 173.283 228.175 169.595C228.792 165.609 228.678 161.543 227.838 157.597C226.576 151.693 223.68 145.925 224.399 139.931C225.103 134.032 229.145 129.169 231.865 123.888C235.365 117.053 236.708 109.318 235.717 101.705C235.249 98.1628 234.429 94.0628 236.833 91.4149C239.719 88.2395 245.305 89.4353 248.598 86.6819C250.207 85.3404 250.987 83.2753 252.178 81.5569C253.667 79.4926 255.749 77.9289 258.147 77.0729C260.545 76.217 263.147 76.1091 265.608 76.7636C267.871 77.4118 269.902 78.698 272.144 79.4266C275.302 80.4315 278.681 80.3209 281.999 80.7179C285.318 81.1148 288.792 82.2252 290.693 84.9434C291.698 86.3905 292.156 88.154 293.081 89.6513C295.067 92.867 298.853 94.4145 301.719 96.8815C304.177 99.0713 305.935 101.936 306.773 105.118C307.612 108.3 307.494 111.658 306.435 114.774C304.726 119.532 300.769 123.742 301.105 128.787C301.241 130.862 302.111 132.897 301.84 134.952C301.045 140.675 292.734 141.815 289.863 146.83C290.094 138.61 288.515 130.143 284.025 123.255C280.435 117.728 269.52 108.081 262.018 110.769C261.234 111.058 260.529 111.527 259.96 112.138C259.39 112.748 258.972 113.484 258.74 114.286C257.996 117.105 260.173 118.306 261.571 120.532C262.909 122.704 263.795 125.124 264.177 127.646C264.559 130.169 264.428 132.742 263.793 135.213Z" fill="#3F3D56"/>
<g opacity="0.2">
<path opacity="0.2" d="M228.542 163.692C228.604 161.11 228.363 158.53 227.823 156.004C226.752 150.98 224.509 146.061 224.303 141.016C224.012 146.634 226.641 152.07 227.823 157.597C228.251 159.602 228.492 161.642 228.542 163.692V163.692Z" fill="black"/>
<path opacity="0.2" d="M249.961 204.465C250.398 203.666 250.851 202.872 251.339 202.099C245.013 205.143 241.323 211.736 238.03 217.936C236.124 221.518 234.168 225.417 234.46 229.407C234.701 225.985 236.385 222.649 238.03 219.549C241.076 213.816 244.465 207.756 249.961 204.465Z" fill="black"/>
<path opacity="0.2" d="M235.757 236.958C235.566 238.315 234.892 239.601 233.655 240.109C232.147 240.732 230.322 239.903 229.311 238.601C228.3 237.3 227.898 235.647 227.531 234.039C226.304 228.683 225.138 223.196 225.017 217.735C224.896 223.729 226.174 229.768 227.531 235.657C227.898 237.26 228.295 238.923 229.311 240.219C230.327 241.515 232.132 242.35 233.655 241.726C235.309 241.048 235.958 238.983 235.792 237.204C235.757 237.119 235.757 237.039 235.757 236.958Z" fill="black"/>
<path opacity="0.2" d="M264.376 129.817C264.318 131.107 264.122 132.387 263.793 133.635C262.918 136.916 261.208 140.554 261.515 143.684C261.757 140.951 263.064 137.977 263.793 135.238C264.259 133.471 264.456 131.643 264.376 129.817Z" fill="black"/>
<path opacity="0.2" d="M236.013 105.84C236.055 103.924 235.951 102.007 235.702 100.107C235.516 98.7104 235.279 97.2232 235.199 95.7711C235.083 97.7055 235.435 99.7907 235.702 101.725C235.881 103.09 235.985 104.464 236.013 105.84V105.84Z" fill="black"/>
<path opacity="0.2" d="M269.394 154.934C269.394 154.889 269.394 154.854 269.359 154.808C268.977 156.678 267.438 158.386 266.729 160.265C266.308 161.387 266.157 162.591 266.287 163.782C266.348 163.132 266.497 162.493 266.729 161.883C267.619 159.516 269.837 157.426 269.394 154.934Z" fill="black"/>
<path opacity="0.2" d="M226.636 202.998C226.415 196.933 221.94 191.944 219.753 186.302C219.404 185.414 219.167 184.485 219.049 183.538C218.928 185.034 219.169 186.537 219.753 187.92C221.905 193.487 226.259 198.386 226.611 204.314C226.636 203.877 226.651 203.435 226.636 202.998Z" fill="black"/>
<path opacity="0.2" d="M284.025 121.677C280.43 116.15 269.52 106.503 262.018 109.191C261.233 109.48 260.528 109.948 259.957 110.559C259.387 111.17 258.968 111.906 258.735 112.709C258.558 113.324 258.539 113.973 258.679 114.598C258.679 114.507 258.71 114.417 258.735 114.326C258.968 113.524 259.386 112.787 259.956 112.176C260.527 111.565 261.233 111.097 262.018 110.809C269.52 108.121 280.43 117.783 284.025 123.295C288.088 129.535 289.762 137.067 289.873 144.538C289.979 136.524 288.375 128.35 284.025 121.677Z" fill="black"/>
<path opacity="0.2" d="M301.824 133.359C301.035 139.067 292.774 140.217 289.873 145.202C289.873 145.749 289.873 146.302 289.873 146.85C292.739 141.825 301.055 140.695 301.845 134.972C301.915 134.41 301.915 133.841 301.845 133.279C301.84 133.306 301.834 133.333 301.824 133.359V133.359Z" fill="black"/>
<path opacity="0.2" d="M306.42 113.176C304.711 117.939 300.754 122.144 301.09 127.194C301.09 127.264 301.09 127.34 301.09 127.415C301.462 122.968 304.846 119.11 306.395 114.794C307.092 112.822 307.391 110.732 307.275 108.644C307.22 110.189 306.932 111.717 306.42 113.176V113.176Z" fill="black"/>
<path opacity="0.2" d="M263.813 213.871C263.433 214.444 262.842 214.845 262.169 214.986C259.76 215.243 260.158 210.917 258.232 209.459C258.282 210.032 258.327 210.61 258.358 211.188C260.148 212.735 259.816 216.85 262.169 216.599C262.502 216.531 262.819 216.398 263.102 216.208C263.384 216.017 263.625 215.773 263.813 215.489C265.96 212.796 266.166 209.394 266.111 205.862C266.055 208.806 265.628 211.615 263.813 213.871Z" fill="black"/>
<path opacity="0.2" d="M257.724 216.946C256.809 219.302 254.436 221.297 251.937 220.9C251.652 219.021 251.367 217.138 251.082 215.253C249.459 216.844 247.523 218.081 245.395 218.885C245.285 219.458 245.179 220.036 245.094 220.614C247.34 219.818 249.384 218.541 251.082 216.871C251.367 218.756 251.652 220.639 251.937 222.518C254.451 222.91 256.809 220.92 257.724 218.564C258.286 216.922 258.51 215.184 258.383 213.454C258.356 214.646 258.134 215.826 257.724 216.946V216.946Z" fill="black"/>
<path opacity="0.2" d="M266.252 196.285C266.058 197.803 265.985 199.334 266.035 200.863C266.043 199.873 266.116 198.884 266.252 197.903C267.152 191.728 271.481 186.076 271.089 179.951C270.742 185.488 267.071 190.658 266.252 196.285Z" fill="black"/>
</g>
<path d="M415.758 281.957C415.758 281.957 412.344 297.85 427.539 299.734L428.479 297.97C428.479 297.97 416.714 286.916 415.758 281.957Z" fill="#4B679F"/>
<path d="M433.326 297.865L429.807 298.613L429.455 298.689C429.455 298.689 420.027 291.041 420.148 273.968C421.41 276.484 422.917 278.869 424.648 281.088C428.374 286.027 432.622 292.624 433.326 297.865Z" fill="#4B679F"/>
<path d="M434.523 299.503C434.244 299.682 433.929 299.798 433.6 299.84C433.272 299.883 432.937 299.852 432.622 299.749C423.572 297.629 426.614 268.095 426.614 268.095C427.117 268.331 427.665 272.114 429.751 276.938C433.412 285.474 437.434 297.362 434.523 299.503Z" fill="#4B679F"/>
<path d="M454.645 281.957C454.645 281.957 455.233 297.85 440.039 299.734L439.098 297.97C439.098 297.97 453.705 286.916 454.645 281.957Z" fill="#4B679F"/>
<path d="M450.291 273.968C450.401 291.052 438.153 298.689 438.153 298.689L437.801 298.613L434.282 297.865C434.98 292.624 439.239 286.027 442.97 281.088C445.08 278.398 447.543 276.003 450.291 273.968V273.968Z" fill="#4B679F"/>
<path d="M437.746 297.955C437.202 298.617 436.514 299.147 435.735 299.503C435.497 299.609 435.25 299.692 434.996 299.749C432.763 300.251 431.979 298.664 432.109 295.93C432.321 291.062 435.383 282.621 438.143 276.335C440.124 271.783 443.357 268.336 443.84 268.11C443.81 268.085 443.674 291.092 437.746 297.955Z" fill="#4B679F"/>
<path d="M435.212 257.724C435.212 257.724 425.08 293.629 433.799 299.045C442.517 304.462 437.449 260.905 435.212 257.724Z" fill="#4B679F"/>
<path opacity="0.1" d="M415.758 281.957C415.758 281.957 412.344 297.85 427.539 299.734L428.479 297.97C428.479 297.97 416.714 286.916 415.758 281.957Z" fill="black"/>
<path opacity="0.1" d="M433.326 297.865L429.807 298.613L429.455 298.689C429.455 298.689 420.027 291.041 420.148 273.968C421.41 276.484 422.917 278.869 424.648 281.088C428.374 286.027 432.622 292.624 433.326 297.865Z" fill="black"/>
<path opacity="0.1" d="M434.523 299.503C434.244 299.682 433.929 299.798 433.6 299.84C433.272 299.883 432.937 299.852 432.622 299.749C423.572 297.629 426.614 268.095 426.614 268.095C427.117 268.331 427.665 272.114 429.751 276.938C433.412 285.474 437.434 297.362 434.523 299.503Z" fill="black"/>
<path opacity="0.1" d="M454.645 281.957C454.645 281.957 455.233 297.85 440.039 299.734L439.098 297.97C439.098 297.97 453.705 286.916 454.645 281.957Z" fill="black"/>
<path opacity="0.1" d="M450.291 273.968C450.401 291.052 438.153 298.689 438.153 298.689L437.801 298.613L434.282 297.865C434.98 292.624 439.239 286.027 442.97 281.088C445.08 278.398 447.543 276.003 450.291 273.968V273.968Z" fill="black"/>
<path opacity="0.1" d="M437.746 297.955C437.202 298.617 436.514 299.147 435.735 299.503C435.497 299.609 435.25 299.692 434.996 299.749C432.763 300.251 431.979 298.664 432.109 295.93C432.321 291.062 435.383 282.621 438.143 276.335C440.124 271.783 443.357 268.336 443.84 268.11C443.81 268.085 443.674 291.092 437.746 297.955Z" fill="black"/>
<path opacity="0.1" d="M435.212 257.724C435.212 257.724 425.08 293.629 433.799 299.045C442.517 304.462 437.449 260.905 435.212 257.724Z" fill="black"/>
<path d="M415.759 281.957C415.759 281.957 413.747 297.85 428.952 299.734L429.892 297.97C429.892 297.97 416.714 286.916 415.759 281.957Z" fill="#4B679F"/>
<path d="M434.739 297.865L431.219 298.613L430.862 298.689C430.862 298.689 420.022 291.041 420.143 273.968C420.143 273.968 422.918 276.943 426.056 281.088C429.787 286.027 434.035 292.624 434.739 297.865Z" fill="#4B679F"/>
<path opacity="0.1" d="M434.739 297.865L431.22 298.613C427.866 295.674 426.538 288.002 426.056 281.088C429.787 286.027 434.035 292.624 434.739 297.865Z" fill="black"/>
<path d="M435.936 299.503C435.657 299.682 435.342 299.798 435.013 299.84C434.685 299.883 434.35 299.852 434.035 299.749C424.96 297.629 426.614 268.095 426.614 268.095C427.117 268.331 429.078 272.114 431.139 276.938C434.825 285.474 438.847 297.362 435.936 299.503Z" fill="#4B679F"/>
<path d="M454.645 281.957C454.645 281.957 456.656 297.85 441.451 299.734L440.511 297.97C440.511 297.97 453.705 286.916 454.645 281.957Z" fill="#4B679F"/>
<path d="M450.291 273.968C450.401 291.052 439.566 298.689 439.566 298.689L439.214 298.613L435.694 297.865C436.398 292.624 440.652 286.027 444.383 281.088C447.51 276.933 450.291 273.968 450.291 273.968Z" fill="#4B679F"/>
<path opacity="0.1" d="M444.368 281.088C443.915 287.539 442.734 294.654 439.868 297.955C439.668 298.192 439.449 298.412 439.214 298.613L435.694 297.865C436.373 292.624 440.637 286.027 444.368 281.088Z" fill="black"/>
<path d="M439.159 297.955C438.615 298.617 437.927 299.147 437.148 299.503C436.908 299.609 436.659 299.692 436.403 299.749C434.171 300.251 433.387 298.664 433.517 295.93C433.734 291.062 436.791 282.621 439.551 276.335C441.532 271.783 443.352 268.336 443.835 268.11C443.81 268.085 445.087 291.092 439.159 297.955Z" fill="#4B679F"/>
<path opacity="0.1" d="M435.936 299.503C435.423 299.5 434.923 299.34 434.503 299.045C430.234 296.388 430.149 286.414 431.164 276.938C434.825 285.474 438.847 297.362 435.936 299.503Z" fill="black"/>
<path opacity="0.1" d="M439.159 297.955C438.656 299.015 438.007 299.578 437.147 299.503C436.712 299.445 436.296 299.288 435.931 299.045C434.822 298.283 433.978 297.194 433.517 295.93C433.734 291.062 436.791 282.621 439.551 276.335C440.506 285.072 440.833 294.363 439.159 297.955Z" fill="black"/>
<path d="M435.212 257.724C435.212 257.724 426.493 293.629 435.212 299.045C443.93 304.462 437.449 260.905 435.212 257.724Z" fill="#4B679F"/>
<path d="M451.94 297.277H415.658V303.281H421.194L421.329 303.99L423.547 315.641H444.639L446.857 303.99L446.992 303.281H451.94V297.277Z" fill="#D4DFEC"/>
<path opacity="0.1" d="M451.925 297.277H415.643V303.281H421.179L421.314 303.99L423.532 315.641H444.624L446.841 303.99L446.977 303.281H451.925V297.277Z" fill="black"/>
<path d="M448.878 300.809L448.269 303.99L446.052 315.641H424.96L422.742 303.99L422.134 300.809H448.878Z" fill="#D4DFEC"/>
<path opacity="0.1" d="M448.878 300.809L448.269 303.99H422.742L422.134 300.809H448.878Z" fill="black"/>
<path d="M453.353 297.277H417.071V303.281H453.353V297.277Z" fill="#D4DFEC"/>
<path d="M143.609 258.845C143.093 259.553 142.68 260.332 142.382 261.156C142.307 261.357 142.231 261.588 142.156 261.809C142.02 261.743 141.877 261.694 141.729 261.664C141.102 261.504 140.453 261.448 139.808 261.498C139.808 261.247 139.833 260.995 139.843 260.709C139.924 257.865 139.587 253.911 136.877 255.584C134.277 257.202 136.133 259.885 137.812 261.613C137.958 261.764 138.098 261.9 138.239 262.035C136.731 263.136 136.419 265.663 136.163 268.311C135.906 270.959 133.649 273.838 132.17 275.496C132.025 275.662 131.884 275.812 131.748 275.953C131.147 275.47 130.449 275.12 129.702 274.927C128.954 274.735 128.174 274.704 127.414 274.838L127.213 274.104C126.006 269.748 123.497 262.201 120.299 260.538L120.722 260.005C122.079 258.227 123.608 255.589 121.35 254.916C119.093 254.242 118.887 257.202 119.012 259.438C119.012 259.714 119.052 259.98 119.078 260.227C118.625 260.248 118.182 260.36 117.775 260.558C117.368 260.756 117.005 261.035 116.709 261.377C116.604 261.247 116.488 261.111 116.363 260.965C114.532 258.8 111.169 255.378 110.153 257.95C109.208 260.362 112.164 263.477 114.246 265.316L114.376 265.427C112.979 271.094 119.073 275.707 122.361 277.727C122.507 277.822 122.647 277.908 122.783 277.988C118.258 283.319 115.457 293.318 115.457 293.318L128.158 295.624C128.158 295.624 136.57 288.374 135.494 281.555H135.579C143.981 279.872 145.892 270.919 144.585 265.603L144.73 265.542C146.26 264.916 147.601 263.903 148.622 262.603C150.955 259.347 146.023 255.654 143.609 258.845Z" fill="#4B679F"/>
<path opacity="0.1" d="M143.609 258.845C143.093 259.553 142.68 260.332 142.382 261.156C142.307 261.357 142.231 261.588 142.156 261.809C142.02 261.743 141.877 261.694 141.729 261.664C141.102 261.504 140.453 261.448 139.808 261.498C139.808 261.247 139.833 260.995 139.843 260.709C139.924 257.865 139.587 253.911 136.877 255.584C134.277 257.202 136.133 259.885 137.812 261.613C137.958 261.764 138.098 261.9 138.239 262.035C136.731 263.136 136.419 265.663 136.163 268.311C135.906 270.959 133.649 273.838 132.17 275.496C132.025 275.662 131.884 275.812 131.748 275.953C131.147 275.47 130.449 275.12 129.702 274.927C128.954 274.735 128.174 274.704 127.414 274.838L127.213 274.104C126.006 269.748 123.497 262.201 120.299 260.538L120.722 260.005C122.079 258.227 123.608 255.589 121.35 254.916C119.093 254.242 118.887 257.202 119.012 259.438C119.012 259.714 119.052 259.98 119.078 260.227C118.625 260.248 118.182 260.36 117.775 260.558C117.368 260.756 117.005 261.035 116.709 261.377C116.604 261.247 116.488 261.111 116.363 260.965C114.532 258.8 111.169 255.378 110.153 257.95C109.208 260.362 112.164 263.477 114.246 265.316L114.376 265.427C112.979 271.094 119.073 275.707 122.361 277.727C122.507 277.822 122.647 277.908 122.783 277.988C118.258 283.319 115.457 293.318 115.457 293.318L128.158 295.624C128.158 295.624 136.57 288.374 135.494 281.555H135.579C143.981 279.872 145.892 270.919 144.585 265.603L144.73 265.542C146.26 264.916 147.601 263.903 148.622 262.603C150.955 259.347 146.023 255.654 143.609 258.845Z" fill="black"/>
<path d="M118.369 262.513L116.885 266.854C116.885 266.854 116.061 266.271 115.02 265.346C112.938 263.528 109.992 260.392 110.927 257.981C111.933 255.388 115.307 258.81 117.142 260.995C117.876 261.859 118.369 262.513 118.369 262.513Z" fill="#4B679F"/>
<path d="M121.496 260.041C121.045 260.631 120.563 261.198 120.053 261.739C119.925 260.984 119.836 260.222 119.787 259.458C119.666 257.237 119.897 254.288 122.125 254.936C124.352 255.584 122.854 258.262 121.496 260.041Z" fill="#4B679F"/>
<path d="M140.623 260.724C140.572 262.151 140.436 263.291 140.436 263.291C139.784 262.782 139.166 262.229 138.586 261.638C136.907 259.9 135.067 257.217 137.656 255.609C140.366 253.926 140.698 257.88 140.623 260.724Z" fill="#4B679F"/>
<path d="M149.381 262.593C148.36 263.893 147.019 264.906 145.49 265.532C145.065 265.718 144.628 265.876 144.182 266.005L142.438 263.553C142.622 262.743 142.864 261.947 143.162 261.171C143.457 260.346 143.87 259.567 144.388 258.86C146.802 255.654 151.729 259.347 149.381 262.593Z" fill="#4B679F"/>
<path opacity="0.1" d="M117.142 260.985C117.876 261.849 118.369 262.493 118.369 262.493L116.885 266.834C116.885 266.834 116.061 266.251 115.02 265.326C115.252 263.937 115.825 262.626 116.689 261.513C116.84 261.332 116.991 261.156 117.142 260.985Z" fill="black"/>
<path opacity="0.1" d="M121.496 260.041C121.045 260.631 120.563 261.198 120.053 261.739C119.925 260.984 119.836 260.222 119.787 259.458C120.403 259.468 121.001 259.672 121.496 260.041V260.041Z" fill="black"/>
<path d="M128.787 277.254L125.101 278.877C124.427 278.541 123.771 278.17 123.135 277.767C119.259 275.385 111.465 269.391 116.689 262.322C121.913 255.252 126.273 267.929 127.987 274.129C128.51 275.983 128.787 277.254 128.787 277.254Z" fill="#4B679F"/>
<path opacity="0.1" d="M138.586 261.638C139.123 261.085 139.852 260.757 140.622 260.724C140.572 262.151 140.436 263.291 140.436 263.291C139.784 262.782 139.166 262.229 138.586 261.638V261.638Z" fill="black"/>
<path opacity="0.1" d="M145.49 265.532C145.065 265.718 144.628 265.876 144.182 266.005L142.438 263.553C142.622 262.743 142.864 261.947 143.162 261.171C144.288 261.829 145.118 263.467 145.49 265.532Z" fill="black"/>
<path d="M136.334 281.545C136.133 281.585 135.921 281.626 135.715 281.656C123.351 283.535 131.638 276.867 131.638 276.867C131.638 276.867 132.196 276.365 132.95 275.521C134.458 273.873 136.686 270.999 136.942 268.336C137.329 264.316 137.777 260.573 142.508 261.679C147.149 262.764 148.034 279.204 136.334 281.545Z" fill="#4B679F"/>
<path d="M136.107 312.305H112.486V318.51H136.107V312.305Z" fill="#D4DFEC"/>
<path d="M139.592 292.132H108.73V313.792H139.592V292.132Z" fill="#D4DFEC"/>
<path opacity="0.1" d="M136.107 312.305H112.486V318.51H136.107V312.305Z" fill="black"/>
<path opacity="0.1" d="M139.592 292.132H108.73V313.792H139.592V292.132Z" fill="black"/>
<path d="M137.656 312.305H114.035V318.51H137.656V312.305Z" fill="#D4DFEC"/>
<path opacity="0.1" d="M127.987 274.129C128.49 275.983 128.787 277.254 128.787 277.254L125.101 278.877C124.427 278.541 123.771 278.17 123.135 277.767C124.578 275.928 126.207 274.556 127.987 274.129Z" fill="black"/>
<path opacity="0.1" d="M136.334 281.545C136.133 281.585 135.921 281.626 135.715 281.656C123.351 283.535 131.638 276.867 131.638 276.867C131.638 276.867 132.196 276.365 132.95 275.521C135.258 277.365 136.203 279.445 136.334 281.545Z" fill="black"/>
<path d="M116.237 293.358C116.237 293.358 123.16 268.597 132.864 276.224C142.568 283.851 128.917 295.624 128.917 295.624L116.237 293.358Z" fill="#4B679F"/>
<path opacity="0.1" d="M119.731 266.979C120.159 266.979 120.506 266.633 120.506 266.206C120.506 265.778 120.159 265.432 119.731 265.432C119.304 265.432 118.957 265.778 118.957 266.206C118.957 266.633 119.304 266.979 119.731 266.979Z" fill="black"/>
<path opacity="0.1" d="M119.666 270.597C120.094 270.597 120.44 270.251 120.44 269.823C120.44 269.396 120.094 269.049 119.666 269.049C119.238 269.049 118.892 269.396 118.892 269.823C118.892 270.251 119.238 270.597 119.666 270.597Z" fill="black"/>
<path opacity="0.1" d="M142.181 267.688C142.609 267.688 142.955 267.341 142.955 266.914C142.955 266.487 142.609 266.14 142.181 266.14C141.754 266.14 141.407 266.487 141.407 266.914C141.407 267.341 141.754 267.688 142.181 267.688Z" fill="black"/>
<path opacity="0.1" d="M124.065 286.243C124.493 286.243 124.84 285.897 124.84 285.469C124.84 285.042 124.493 284.696 124.065 284.696C123.638 284.696 123.291 285.042 123.291 285.469C123.291 285.897 123.638 286.243 124.065 286.243Z" fill="black"/>
<path opacity="0.1" d="M140.567 273.702C140.995 273.702 141.341 273.356 141.341 272.928C141.341 272.501 140.995 272.155 140.567 272.155C140.14 272.155 139.793 272.501 139.793 272.928C139.793 273.356 140.14 273.702 140.567 273.702Z" fill="black"/>
<path opacity="0.1" d="M132.543 281.721C132.97 281.721 133.317 281.375 133.317 280.947C133.317 280.52 132.97 280.174 132.543 280.174C132.115 280.174 131.768 280.52 131.768 280.947C131.768 281.375 132.115 281.721 132.543 281.721Z" fill="black"/>
<path opacity="0.1" d="M122.386 268.527C122.814 268.527 123.16 268.18 123.16 267.753C123.16 267.326 122.814 266.979 122.386 266.979C121.958 266.979 121.612 267.326 121.612 267.753C121.612 268.18 121.958 268.527 122.386 268.527Z" fill="black"/>
<path opacity="0.1" d="M140.049 270.014C140.477 270.014 140.824 269.668 140.824 269.24C140.824 268.813 140.477 268.467 140.049 268.467C139.622 268.467 139.275 268.813 139.275 269.24C139.275 269.668 139.622 270.014 140.049 270.014Z" fill="black"/>
<path opacity="0.1" d="M137.395 276.028C137.822 276.028 138.169 275.682 138.169 275.255C138.169 274.827 137.822 274.481 137.395 274.481C136.967 274.481 136.62 274.827 136.62 275.255C136.62 275.682 136.967 276.028 137.395 276.028Z" fill="black"/>
<path opacity="0.1" d="M129.244 285.665C129.672 285.665 130.018 285.319 130.018 284.892C130.018 284.464 129.672 284.118 129.244 284.118C128.817 284.118 128.47 284.464 128.47 284.892C128.47 285.319 128.817 285.665 129.244 285.665Z" fill="black"/>
<path opacity="0.1" d="M127.56 281.847C127.987 281.847 128.334 281.5 128.334 281.073C128.334 280.646 127.987 280.299 127.56 280.299C127.132 280.299 126.785 280.646 126.785 281.073C126.785 281.5 127.132 281.847 127.56 281.847Z" fill="black"/>
<path opacity="0.1" d="M123.547 273.25C123.975 273.25 124.322 272.903 124.322 272.476C124.322 272.049 123.975 271.702 123.547 271.702C123.12 271.702 122.773 272.049 122.773 272.476C122.773 272.903 123.12 273.25 123.547 273.25Z" fill="black"/>
<path opacity="0.1" d="M137.656 312.305H114.035V314.571H137.656V312.305Z" fill="black"/>
<path d="M141.145 292.132H110.284V313.792H141.145V292.132Z" fill="#D4DFEC"/>
<path opacity="0.1" d="M130.28 289.157C130.708 289.157 131.054 288.811 131.054 288.384C131.054 287.956 130.708 287.61 130.28 287.61C129.852 287.61 129.506 287.956 129.506 288.384C129.506 288.811 129.852 289.157 130.28 289.157Z" fill="black"/>
<path opacity="0.1" d="M125.619 290.127C126.047 290.127 126.393 289.781 126.393 289.353C126.393 288.926 126.047 288.579 125.619 288.579C125.191 288.579 124.845 288.926 124.845 289.353C124.845 289.781 125.191 290.127 125.619 290.127Z" fill="black"/>
<defs>
<linearGradient id="paint0_linear" x1="277.665" y1="355.631" x2="277.665" y2="74.0454" gradientUnits="userSpaceOnUse">
<stop stop-color="#808080" stop-opacity="0.25"/>
<stop offset="0.54" stop-color="#808080" stop-opacity="0.12"/>
<stop offset="1" stop-color="#808080" stop-opacity="0.1"/>
</linearGradient>
</defs>
</svg>
